<svg width="9" height="8" viewBox="0 0 9 8" fill="none" xmlns="http://www.w3.org/2000/svg">
<path d="M8.30115 0.7578C8.05063 0.595697 7.69695 0.728326 7.5938 0.772536L0.918123 3.38091C0.682338 3.46933 0.417079 3.66091 0.461289 3.97038C0.505499 4.32405 0.873913 4.45668 0.918123 4.47142L2.46546 4.9872C2.58336 5.38509 2.95177 6.57875 3.04019 6.84401C3.11387 7.06506 3.20229 7.31558 3.43808 7.33032C3.46755 7.34505 3.51176 7.34505 3.57071 7.34505C3.71807 7.34505 3.80649 7.30084 3.86544 7.22716L4.76437 6.40191L6.28224 7.5661C6.29698 7.58084 6.31171 7.59558 6.34119 7.59558C6.47381 7.65452 6.57697 7.66926 6.68013 7.66926C6.78328 7.66926 6.8717 7.63979 6.93065 7.62505C7.19591 7.52189 7.29906 7.27137 7.3138 7.2419C7.3138 7.22716 7.32854 7.21242 7.32854 7.19769L8.5222 1.1999C8.5222 1.18516 8.5222 1.17042 8.5222 1.15569C8.50746 0.919902 8.37484 0.802009 8.30115 0.7578ZM3.79176 6.59349L3.88018 5.76824L4.32227 6.10718L3.79176 6.59349ZM6.79802 7.0798C6.78328 7.09453 6.75381 7.13874 6.7096 7.16821C6.66539 7.18295 6.62118 7.18295 6.56223 7.15348L4.897 5.8714L4.07175 5.22299C4.76437 4.60405 6.93065 2.65882 7.03381 2.55566C7.12222 2.46724 7.22538 2.36409 7.21064 2.20198C7.21064 2.18725 7.21064 2.17251 7.19591 2.15778C7.18117 2.06936 7.13696 1.98094 7.04854 1.93673C6.88644 1.84831 6.7096 1.90725 6.57697 1.99567L2.6423 4.51563L1.08023 3.98511C1.05075 3.97038 1.00654 3.95564 0.991806 3.92617C1.02128 3.91143 1.05075 3.88196 1.08023 3.88196C1.08023 3.88196 1.08023 3.88196 1.09496 3.88196L7.77064 1.25884C7.77064 1.25884 7.77063 1.25884 7.78537 1.25884C7.82958 1.24411 7.90326 1.21463 7.96221 1.21463L6.79802 7.0798Z" fill="white"/>
</svg>
